<?xml version="1.0" standalone="no"?>
<!DOCTYPE svg PUBLIC "-//W3C//DTD SVG 20010904//EN"
 "http://www.w3.org/TR/2001/REC-SVG-20010904/DTD/svg10.dtd">
<svg version="1.0" xmlns="http://www.w3.org/2000/svg"
 width="16.000000pt" height="16.000000pt" viewBox="0 0 16.000000 16.000000"
 preserveAspectRatio="xMidYMid meet">

<g transform="translate(0.000000,16.000000) scale(0.100000,-0.100000)"
fill="#000000" stroke="none">
<path d="M0 80 l0 -80 80 0 80 0 0 80 0 80 -80 0 -80 0 0 -80z m135 15 c0 -45
-2 -50 -23 -51 -18 -1 -19 -1 -2 3 16 4 20 12 20 48 0 37 -3 44 -22 48 -20 5
-20 5 2 4 23 -2 25 -6 25 -52z m-98 39 c-3 -3 -12 -4 -19 -1 -8 3 -5 6 6 6 11
1 17 -2 13 -5z m63 -44 c0 -29 -2 -30 -45 -30 -43 0 -45 1 -45 30 0 29 2 30
45 30 43 0 45 -1 45 -30z"/>
</g>
</svg>
