<?xml version="1.0" standalone="no"?>
<!DOCTYPE svg PUBLIC "-//W3C//DTD SVG 20010904//EN"
 "http://www.w3.org/TR/2001/REC-SVG-20010904/DTD/svg10.dtd">
<svg version="1.0" xmlns="http://www.w3.org/2000/svg"
 width="16.000000pt" height="16.000000pt" viewBox="0 0 16.000000 16.000000"
 preserveAspectRatio="xMidYMid meet">

<g transform="translate(0.000000,16.000000) scale(0.100000,-0.100000)"
fill="#000000" stroke="none">
<path d="M123 153 c28 -4 28 -5 25 -71 l-3 -67 -67 -3 -67 -3 -4 38 -4 38 -1
-42 -2 -43 80 0 80 0 0 80 0 80 -32 -1 c-31 -2 -32 -2 -5 -6z"/>
<path d="M81 112 c-1 -7 -12 -25 -26 -39 -28 -31 -25 -45 5 -18 18 16 20 16
20 2 0 -29 19 -19 39 21 19 37 19 38 0 39 -11 1 -17 -2 -14 -8 4 -5 3 -15 -1
-21 -6 -9 -10 -5 -15 12 -4 14 -7 19 -8 12z"/>
</g>
</svg>
