<?xml version="1.0" standalone="no"?>
<!DOCTYPE svg PUBLIC "-//W3C//DTD SVG 20010904//EN"
 "http://www.w3.org/TR/2001/REC-SVG-20010904/DTD/svg10.dtd">
<svg version="1.0" xmlns="http://www.w3.org/2000/svg"
 width="17.000000pt" height="17.000000pt" viewBox="0 0 17.000000 17.000000"
 preserveAspectRatio="xMidYMid meet">

<g transform="translate(0.000000,17.000000) scale(0.100000,-0.100000)"
fill="#000000" stroke="none">
<path d="M20 95 l0 -75 43 0 c37 0 45 4 65 35 13 21 22 50 22 75 l0 40 -65 0
-65 0 0 -75z m120 30 c0 -29 -4 -36 -25 -41 -18 -4 -25 -13 -25 -30 0 -20 -5
-24 -30 -24 l-30 0 0 65 0 65 55 0 55 0 0 -35z m-21 -67 c-9 -16 -14 -19 -17
-9 -2 7 2 17 9 22 20 13 21 11 8 -13z"/>
</g>
</svg>
